<svg t="1584156050217" class="icon" viewBox="0 0 1024 1024" version="1.1" xmlns="http://www.w3.org/2000/svg" p-id="10242" width="200" height="200"><path d="M85.333333 256H0v213.333333h0.426667L0 853.333333c0 47.146667 38.186667 85.333333 85.333333 85.333334h768v-85.333334H85.333333V256z m853.333334-85.333333H597.333333l-85.333333-85.333334H256C208.853333 85.333333 171.093333 123.52 171.093333 170.666667L170.666667 682.666667c0 47.146667 38.186667 85.333333 85.333333 85.333333h682.666667c47.146667 0 85.333333-38.186667 85.333333-85.333333V256c0-47.146667-38.186667-85.333333-85.333333-85.333333zM298.666667 640l192-256 149.333333 192.213333L746.666667 448l149.333333 192H298.666667z" p-id="10243"></path></svg>
