<svg t="1584376295140" class="icon" viewBox="0 0 1024 1024" version="1.1" xmlns="http://www.w3.org/2000/svg" p-id="3875" width="200" height="200"><path d="M512 97C282.8 97 97 282.8 97 512s185.8 415 415 415 415-185.8 415-415S741.2 97 512 97z m248.2 663.2C693.9 826.5 605.8 863 512 863s-181.9-36.5-248.2-102.8S161 605.8 161 512s36.5-181.9 102.8-248.2S418.2 161 512 161s181.9 36.5 248.2 102.8S863 418.3 863 512c0 93.8-36.5 181.9-102.8 248.2z" p-id="3876"></path><path d="M716.4 484.4l-282.3-163c-9.9-5.7-22.1-5.7-32 0-9.9 5.7-16 16.3-16 27.7V675c0 11.4 6.1 22 16 27.7 5 2.9 10.5 4.3 16 4.3s11-1.4 16-4.3l282.3-163c9.9-5.7 16-16.3 16-27.7 0-11.3-6.1-21.9-16-27.6zM450.1 619.7V404.6l186.3 107.5-186.3 107.6z" p-id="3877"></path></svg>
